<?xml version="1.0" ?><svg xmlns="http://www.w3.org/2000/svg" xmlns:xlink="http://www.w3.org/1999/xlink" version="1.1" id="Layer_1" viewBox="0 0 512 512" style="enable-background:new 0 0 512 512;" fill="#0012B2" xml:space="preserve"><g><path d="M435.8,82.1h-18.7V66.2c0-12.4-10.1-22.5-22.5-22.5h-8.4c-12.4,0-22.5,10.1-22.5,22.5v15.9h-36.2V66.2   c0-12.4-10.1-22.5-22.5-22.5h-8.4c-12.4,0-22.5,10.1-22.5,22.5v15.9h-36.2V66.2c0-12.4-10.1-22.5-22.5-22.5H207   c-12.4,0-22.5,10.1-22.5,22.5v15.9h-36.2V66.2c0-12.4-10.1-22.5-22.5-22.5h-8.4c-12.4,0-22.5,10.1-22.5,22.5v15.9H76.2   c-17.9,0-32.5,14.6-32.5,32.5v320.6c0,17.9,14.6,32.5,32.5,32.5h359.6c17.9,0,32.5-14.6,32.5-32.5V114.6   C468.3,96.7,453.7,82.1,435.8,82.1z M378.7,66.2c0-4.1,3.4-7.5,7.5-7.5h8.4c4.1,0,7.5,3.4,7.5,7.5V113c0,4.1-3.4,7.5-7.5,7.5h-8.4   c-4.1,0-7.5-3.4-7.5-7.5V66.2z M289.1,66.2c0-4.1,3.4-7.5,7.5-7.5h8.4c4.1,0,7.5,3.4,7.5,7.5V113c0,4.1-3.4,7.5-7.5,7.5h-8.4   c-4.1,0-7.5-3.4-7.5-7.5V66.2z M199.5,66.2c0-4.1,3.4-7.5,7.5-7.5h8.4c4.1,0,7.5,3.4,7.5,7.5V113c0,4.1-3.4,7.5-7.5,7.5H207   c-4.1,0-7.5-3.4-7.5-7.5V66.2z M109.9,66.2c0-4.1,3.4-7.5,7.5-7.5h8.4c4.1,0,7.5,3.4,7.5,7.5V113c0,4.1-3.4,7.5-7.5,7.5h-8.4   c-4.1,0-7.5-3.4-7.5-7.5V66.2z M453.3,435.2c0,9.6-7.9,17.5-17.5,17.5H76.2c-9.6,0-17.5-7.9-17.5-17.5V186.7h394.6V435.2z"/><path d="M102.4,429.9h204.8c4.1,0,7.5-3.4,7.5-7.5v-43.7h94.9c4.1,0,7.5-3.4,7.5-7.5V217.6c0-4.1-3.4-7.5-7.5-7.5h-256   c-4.1,0-7.5,3.4-7.5,7.5v43.7h-43.7c-4.1,0-7.5,3.4-7.5,7.5v153.6C94.9,426.5,98.3,429.9,102.4,429.9z M161.1,276.3h36.2v36.2   h-36.2V276.3z M402.1,312.5h-36.2v-36.2h36.2V312.5z M350.9,312.5h-36.2v-36.2h36.2V312.5z M299.7,363.7h-36.2v-36.2h36.2V363.7z    M212.3,378.7h36.2v36.2h-36.2V378.7z M197.3,414.9h-36.2v-36.2h36.2V414.9z M212.3,363.7v-36.2h36.2v36.2H212.3z M263.5,312.5   v-36.2h36.2v36.2H263.5z M314.7,261.3v-36.2h36.2v36.2H314.7z M299.7,261.3h-36.2v-36.2h36.2V261.3z M248.5,261.3h-36.2v-36.2h36.2   V261.3z M248.5,276.3v36.2h-36.2v-36.2H248.5z M197.3,327.5v36.2h-36.2v-36.2H197.3z M146.1,363.7h-36.2v-36.2h36.2V363.7z    M109.9,378.7h36.2v36.2h-36.2V378.7z M299.7,414.9h-36.2v-36.2h36.2V414.9z M314.7,327.5h36.2v36.2h-36.2V327.5z M365.9,363.7   v-36.2h36.2v36.2H365.9z M402.1,261.3h-36.2v-36.2h36.2V261.3z M161.1,225.1h36.2v36.2h-36.2V225.1z M146.1,276.3v36.2h-36.2v-36.2   H146.1z"/></g></svg>