<?xml version="1.0" ?><svg viewBox="0 0 22.176 22.176" xmlns="http://www.w3.org/2000/svg"><g data-name="Layer 2" id="Layer_2"><g data-name="Layer 1" fill="#000C75" id="Layer_1-2"><path d="M9.193,13.116a.337.337,0,0,1-.479-.474C9.02,12.338,9.507,12.81,9.193,13.116Zm1.254-.573a.336.336,0,0,0,0,.672A.336.336,0,0,0,10.447,12.543Zm1.492,0a.336.336,0,0,0,0,.672A.336.336,0,0,0,11.939,12.543Zm10.237-9.4v18.7a.337.337,0,0,1-.336.336H14.778a.336.336,0,0,1,0-.672H21.5V3.478H19.146V16.016a.336.336,0,0,1-.6.21L8.349,3.478H3.572V16.04a.336.336,0,0,1-.336.336,2.564,2.564,0,0,0,0,5.128H4.921a.336.336,0,0,1,0,.672H3.236A3.24,3.24,0,0,1,0,18.94H0V3.236A3.24,3.24,0,0,1,3.236,0a.336.336,0,0,1,.336.336v2.47H7.811L6,.546A.338.338,0,0,1,6.266,0H18.81a.337.337,0,0,1,.336.336v2.47H21.84A.336.336,0,0,1,22.176,3.142ZM2.9.694A2.567,2.567,0,0,0,.672,3.236V16.968A3.235,3.235,0,0,1,2.9,15.722ZM18.474.672H6.965L18.474,15.058Zm-6.49,2.134h4.48a.335.335,0,0,1,.336.336v5.6a.338.338,0,0,1-.6.21l-4.48-5.6A.338.338,0,0,1,11.984,2.806Zm.7.672,3.445,4.306V3.478Zm1.086,8.506v8.96a1.233,1.233,0,0,1-1.232,1.232H7.162A1.234,1.234,0,0,1,5.93,20.944v-8.96a1.235,1.235,0,0,1,1.232-1.233h5.375A1.234,1.234,0,0,1,13.769,11.984ZM9.514,18.592H6.6c.054,3.481-.58,2.861,2.912,2.912Zm0-3.584H6.6v2.913H9.514ZM13.1,18.592H10.186V21.5h2.351a.561.561,0,0,0,.561-.56Zm0-3.584H10.186v2.913H13.1Zm0-3.024a.561.561,0,0,0-.561-.56H7.162a.56.56,0,0,0-.56.56v2.352h6.5Z" id="engineering"/></g></g></svg>